<?xml version="1.0" standalone="no"?>
<!DOCTYPE svg PUBLIC "-//W3C//DTD SVG 20010904//EN"
 "http://www.w3.org/TR/2001/REC-SVG-20010904/DTD/svg10.dtd">
<svg version="1.0" xmlns="http://www.w3.org/2000/svg"
 width="1000.000000pt" height="1000.000000pt" viewBox="0 0 1000.000000 1000.000000"
 preserveAspectRatio="xMidYMid meet">
<metadata>
Created by potrace 1.11, written by Peter Selinger 2001-2013
</metadata>
<g transform="translate(0.000000,1000.000000) scale(0.100000,-0.100000)"
fill="#000000" stroke="none">
<path d="M1627 8133 c-4 -3 -7 -33 -7 -65 l0 -58 93 -107 c50 -59 186 -215
300 -348 115 -132 216 -253 225 -270 16 -28 17 -200 17 -2285 0 -2085 -1
-2257 -17 -2285 -9 -16 -110 -138 -225 -270 -114 -133 -250 -289 -301 -349
l-93 -107 3 -62 3 -62 1623 -3 1622 -2 0 65 0 66 -302 349 c-166 193 -309 362
-318 377 -13 25 -15 165 -18 1158 -2 944 0 1127 11 1110 7 -11 422 -719 921
-1573 l908 -1552 1152 2 1151 3 3 64 3 63 -224 227 c-225 227 -303 321 -395
473 -97 160 -1902 3362 -1900 3369 11 26 649 716 717 775 47 41 429 321 848
622 l763 547 0 68 0 67 -1385 0 -1385 0 0 -68 0 -68 241 -440 c337 -614 320
-574 280 -652 -15 -28 -1561 -1753 -1687 -1882 l-24 -25 2 1125 c3 989 5 1128
18 1153 9 15 152 184 318 377 l302 349 0 66 0 65 -1618 0 c-890 0 -1622 -3
-1625 -7z"/>
</g>
</svg>
